<svg xmlns="http://www.w3.org/2000/svg" height="512pt" version="1.1" viewBox="-61 0 512 512" width="512pt">
<g id="surface1">
<path d="M 390 15 L 390 497 C 390 501.199219 388.199219 504.800781 385.5 507.5 L 309 465.800781 L 81 465.800781 L 4.5 507.5 C 1.800781 504.800781 0 501.199219 0 497 L 0 15 C 0 10.800781 1.800781 7.199219 4.5 4.5 L 81.898438 72.898438 L 308.101562 72.898438 L 385.5 4.5 C 388.199219 7.199219 390 10.800781 390 15 Z M 390 15 " style=" stroke:none;fill-rule:nonzero;fill:rgb(93.333333%,74.901961%,0%);fill-opacity:1;" />
<path d="M 390 15 L 390 497 C 390 501.199219 388.199219 504.800781 385.5 507.5 L 309 465.800781 L 195 465.800781 L 195 72.898438 L 308.101562 72.898438 L 385.5 4.5 C 388.199219 7.199219 390 10.800781 390 15 Z M 390 15 " style=" stroke:none;fill-rule:nonzero;fill:rgb(86.27451%,61.960784%,0%);fill-opacity:1;" />
<path d="M 385.5 507.5 C 382.800781 510.199219 379.199219 512 375 512 L 15 512 C 10.800781 512 7.199219 510.199219 4.5 507.5 L 51 435.800781 C 56.699219 427.101562 66 422 76.199219 422 L 313.800781 422 C 324 422 333.300781 427.097656 339 435.800781 Z M 385.5 507.5 " style=" stroke:none;fill-rule:nonzero;fill:rgb(100%,85.490196%,26.666667%);fill-opacity:1;" />
<path d="M 339 435.800781 L 385.5 507.5 C 382.800781 510.199219 379.199219 512 375 512 L 195 512 L 195 422 L 313.800781 422 C 324 422 333.300781 427.097656 339 435.800781 Z M 339 435.800781 " style=" stroke:none;fill-rule:nonzero;fill:rgb(93.333333%,74.901961%,0%);fill-opacity:1;" />
<path d="M 385.5 4.5 L 338.101562 102.898438 C 333.300781 113.398438 322.800781 120 311.101562 120 L 78.898438 120 C 67.199219 120 56.699219 113.398438 51.898438 102.898438 L 4.5 4.5 C 7.199219 1.800781 10.800781 0 15 0 L 375 0 C 379.199219 0 382.800781 1.800781 385.5 4.5 Z M 385.5 4.5 " style=" stroke:none;fill-rule:nonzero;fill:rgb(100%,85.490196%,26.666667%);fill-opacity:1;" />
<path d="M 311.101562 120 L 195 120 L 195 0 L 375 0 C 379.199219 0 382.800781 1.800781 385.5 4.5 L 338.101562 102.898438 C 333.300781 113.398438 322.800781 120 311.101562 120 Z M 311.101562 120 " style=" stroke:none;fill-rule:nonzero;fill:rgb(93.333333%,74.901961%,0%);fill-opacity:1;" />
<path d="M 165 240 C 156.710938 240 150 233.289062 150 225 L 150 105 C 150 96.710938 156.710938 90 165 90 C 173.289062 90 180 96.710938 180 105 L 180 225 C 180 233.289062 173.289062 240 165 240 Z M 165 240 " style=" stroke:none;fill-rule:nonzero;fill:rgb(60%,31.372549%,23.921569%);fill-opacity:1;" />
<path d="M 225 240 C 216.710938 240 210 233.289062 210 225 L 210 105 C 210 96.710938 216.710938 90 225 90 C 233.289062 90 240 96.710938 240 105 L 240 225 C 240 233.289062 233.289062 240 225 240 Z M 225 240 " style=" stroke:none;fill-rule:nonzero;fill:rgb(50.196078%,25.882353%,19.215686%);fill-opacity:1;" />
<path d="M 195 60 C 170.097656 60 150 80.097656 150 105 C 150 129.898438 170.097656 150 195 150 C 219.902344 150 240 129.898438 240 105 C 240 80.097656 219.902344 60 195 60 Z M 195 60 " style=" stroke:none;fill-rule:nonzero;fill:rgb(87.058824%,92.54902%,94.509804%);fill-opacity:1;" />
<path d="M 195 150 L 195 60 C 219.902344 60 240 80.097656 240 105 C 240 129.898438 219.902344 150 195 150 Z M 195 150 " style=" stroke:none;fill-rule:nonzero;fill:rgb(77.647059%,88.627451%,90.588235%);fill-opacity:1;" />
<path d="M 195 90 C 186.597656 90 180 96.597656 180 105 C 180 113.398438 186.597656 120 195 120 C 203.402344 120 210 113.398438 210 105 C 210 96.597656 203.402344 90 195 90 Z M 195 90 " style=" stroke:none;fill-rule:nonzero;fill:rgb(60%,31.372549%,23.921569%);fill-opacity:1;" />
<path d="M 195 120 L 195 90 C 203.402344 90 210 96.597656 210 105 C 210 113.398438 203.402344 120 195 120 Z M 195 120 " style=" stroke:none;fill-rule:nonzero;fill:rgb(50.196078%,25.882353%,19.215686%);fill-opacity:1;" />
<path d="M 195 180 C 170.097656 180 150 200.097656 150 225 C 150 249.898438 170.097656 270 195 270 C 219.902344 270 240 249.898438 240 225 C 240 200.097656 219.902344 180 195 180 Z M 195 180 " style=" stroke:none;fill-rule:nonzero;fill:rgb(87.058824%,92.54902%,94.509804%);fill-opacity:1;" />
<path d="M 240 225 C 240 249.898438 219.902344 270 195 270 L 195 180 C 219.902344 180 240 200.097656 240 225 Z M 240 225 " style=" stroke:none;fill-rule:nonzero;fill:rgb(77.647059%,88.627451%,90.588235%);fill-opacity:1;" />
<path d="M 195 210 C 186.597656 210 180 216.597656 180 225 C 180 233.398438 186.597656 240 195 240 C 203.402344 240 210 233.398438 210 225 C 210 216.597656 203.402344 210 195 210 Z M 195 210 " style=" stroke:none;fill-rule:nonzero;fill:rgb(60%,31.372549%,23.921569%);fill-opacity:1;" />
<path d="M 210 225 C 210 233.398438 203.402344 240 195 240 L 195 210 C 203.402344 210 210 216.597656 210 225 Z M 210 225 " style=" stroke:none;fill-rule:nonzero;fill:rgb(50.196078%,25.882353%,19.215686%);fill-opacity:1;" />
</g>
</svg>